<?xml version="1.0" encoding="UTF-8"?>
<svg width="48" height="48" fill="#000000" version="1.1" viewBox="0 0 24 24" xmlns="http://www.w3.org/2000/svg" xmlns:cc="http://creativecommons.org/ns#" xmlns:dc="http://purl.org/dc/elements/1.1/" xmlns:rdf="http://www.w3.org/1999/02/22-rdf-syntax-ns#">
 <metadata>
  <rdf:RDF>
   <cc:Work rdf:about="">
    <dc:format>image/svg+xml</dc:format>
    <dc:type rdf:resource="http://purl.org/dc/dcmitype/StillImage"/>
    <dc:title/>
   </cc:Work>
  </rdf:RDF>
 </metadata>
 <path transform="scale(.5)" d="m24 6c-9.94 0-18 8.06-18 18s8.06 18 18 18c1.66 0 3-1.34 3-3 0-0.78-0.2993-1.4795-0.7793-2.0195-0.46-0.52-0.75977-1.2205-0.75976-1.9805 0-1.66 1.34-3 3-3h3.5391c5.52 0 10-4.48 10-10 0-8.84-8.06-16-18-16zm-5 4c1.66 0 3 1.34 3 3s-1.34 3-3 3-3-1.34-3-3 1.34-3 3-3zm10 0c1.66 0 3 1.34 3 3s-1.34 3-3 3-3-1.34-3-3 1.34-3 3-3zm-6.4575 6.8417h2.8953l4.5606 12.874h-2.7519l-0.99816-2.8511h-4.5178l-0.99816 2.8511h-2.7519zm-9.5425 1.1583c1.66 0 3 1.34 3 3s-1.34 3-3 3-3-1.34-3-3 1.34-3 3-3zm22 0c1.66 0 3 1.34 3 3s-1.34 3-3 3-3-1.34-3-3 1.34-3 3-3zm-11.01 1.737-1.6178 5.1582h3.2343z" fill="#1a1a1a" stroke-width="2"/>
 <path d="M0 0h24v24H0z" fill="none"/>
 <path d="m12 6.2971c-0.01091 4.453e-4 -0.02182 9.22e-4 -0.03272 0.00143-0.1727 0.00143-0.34524 0.00997-0.51718 0.026451-0.0388 0.00471-0.07755 0.00981-0.11624 0.015318-0.14396 0.016679-0.28717 0.037535-0.42948 0.064734-0.0358 0.00731-0.07154 0.014972-0.10719 0.022973-0.16175 0.034049-0.32141 0.075581-0.47959 0.1232l-0.0048 0.00143c-0.83235 0.25136-1.6084 0.68548-2.2358 1.3037-0.012131 0.015432-0.022128 0.030528-0.034106 0.045938-1.1133 1.0728-1.7433 2.5517-1.7457 4.0978 0.00255 0.87129 0.20471 1.7304 0.59096 2.5114 0.00378 0.0094 0.00661 0.01917 0.010441 0.02854 0.0095 0.01939 0.020898 0.03782 0.030627 0.05708 0.038661 0.07654 0.079043 0.1522 0.12112 0.22692 0.061239 0.10795 0.1258 0.21335 0.1942 0.31671 0.046084 0.06878 0.09366 0.13655 0.14269 0.20325 0.05345 0.07335 0.10802 0.14583 0.16497 0.21648 0.054591 0.06857 0.11076 0.13588 0.16845 0.20186 0.027021 0.0305 0.055858 0.05918 0.083528 0.0891 0.14692 0.16005 0.30286 0.31158 0.46706 0.45384 0.27886 0.24163 0.58051 0.45564 0.90071 0.63899 0.010186 0.0058 0.020407 0.0116 0.030628 0.01741 0.21239 0.12096 0.43234 0.22815 0.65848 0.32089 0.071381 0.02813 0.14332 0.05482 0.21578 0.08005 0.09559 0.03476 0.19222 0.06655 0.28956 0.09606 0.05359 0.0168 0.10742 0.03282 0.16149 0.04803 0.15207 0.04109 0.30556 0.07593 0.4608 0.10372 0.04724 0.0078 0.09458 0.01498 0.142 0.02158 0.10604 0.01605 0.21245 0.02939 0.3195 0.03898 0.18268 0.01952 0.36619 0.03021 0.54989 0.03202 0.02367-1e-3 0.04734-0.0022 0.071-0.0035 0.35749-0.0012 0.71252-0.03773 1.0601-0.10998 6.77e-4 -1.37e-4 0.0014 1.38e-4 0.0021 0 0.0077-0.0021 0.01532-0.0042 0.02297-0.0063 0.14902-0.0317 0.29685-0.06892 0.4427-0.11276 0.11559-0.0351 0.23004-0.07387 0.34316-0.11624 0.02667-0.0099 0.05352-0.01892 0.08005-0.02923 0.87488-0.33267 1.6544-0.87556 2.2699-1.5808l7e-3 -7e-3c0.0023-0.0026 4e-3 -0.0057 0.0063-0.0084 0.0886-0.1016 0.17358-0.20631 0.25476-0.31393 0.04222-0.05552 0.08169-0.11279 0.12181-0.16984 0.0501-0.07012 0.09861-0.14137 0.14548-0.21369 0.09163-0.14416 0.17773-0.29236 0.25546-0.44479 0.07991-0.15672 0.15174-0.31775 0.21578-0.48238 0.04446-0.1165 0.08508-0.23444 0.12181-0.3536 0.0061-0.01998 0.01428-0.0391 0.02019-0.05917 0.0015-0.0046 2e-3 -0.0094 0.0035-0.01392 0.03052-0.0983 0.05837-0.19741 0.08353-0.29722 0.02801-0.10778 0.0521-0.21608 0.07309-0.32506 0.0094-0.04745 0.01824-0.09502 0.02645-0.14269 0.02436-0.14834 0.04177-0.29734 0.0536-0.44688 3e-3 -0.02968 0.0058-0.05938 0.0084-0.0891 0.0038-0.06104 0.0052-0.12196 7e-3 -0.18307 0.0034-0.06445 0.0057-0.12896 0.0069-0.1935-0.0012-0.02739-0.0026-0.05477-0.0042-0.08214-0.0016-0.07557-0.0066-0.15072-0.01115-0.22619-0.054454-1.0327-0.3887-2.0312-0.96698-2.8886-0.023994-0.033908-0.048358-0.067554-0.073088-0.10093-0.08881-0.1274-0.18291-0.25066-0.28191-0.37031-0.0015-0.00178-0.0027-0.00378-0.0042-0.00556l-7e-3 -0.00766c-0.3649-0.43839-0.79418-0.82365-1.2856-1.127-0.84804-0.56313-1.8442-0.85208-2.8504-0.88679-0.0728-0.00395-0.14567-0.0065-0.21857-0.00766zm-0.71765 2.1348h1.4256l2.2803 6.415h-1.3539l-0.49908-1.4256h-2.281l-0.49908 1.4256h-1.3539zm0.71278 1.4255-0.81997 2.6012h1.6392z" fill="#d40000" stroke-width=".71277"/>
</svg>
