<?xml version="1.0" encoding="UTF-8"?>
<svg width="120" height="120" fill="#000000" version="1.1" viewBox="0 0 60 60" xmlns="http://www.w3.org/2000/svg" xmlns:cc="http://creativecommons.org/ns#" xmlns:dc="http://purl.org/dc/elements/1.1/" xmlns:rdf="http://www.w3.org/1999/02/22-rdf-syntax-ns#">
 <metadata>
  <rdf:RDF>
   <cc:Work rdf:about="">
    <dc:format>image/svg+xml</dc:format>
    <dc:type rdf:resource="http://purl.org/dc/dcmitype/StillImage"/>
    <dc:title/>
   </cc:Work>
  </rdf:RDF>
 </metadata>
 <path d="m30 7.5c-12.425 0-22.5 10.075-22.5 22.5s10.075 22.5 22.5 22.5c2.075 0 3.75-1.675 3.75-3.75 0-0.975-0.37412-1.8494-0.97412-2.5244-0.575-0.64999-0.94971-1.5256-0.94971-2.4756 0-2.075 1.675-3.75 3.75-3.75h4.4238c6.9 0 12.5-5.6 12.5-12.5 0-11.05-10.075-20-22.5-20zm-6.25 5c2.075 0 3.75 1.675 3.75 3.75s-1.675 3.75-3.75 3.75-3.75-1.675-3.75-3.75 1.675-3.75 3.75-3.75zm12.5 0c2.075 0 3.75 1.675 3.75 3.75s-1.675 3.75-3.75 3.75-3.75-1.675-3.75-3.75 1.675-3.75 3.75-3.75zm-8.0718 8.5522h3.6191l5.7008 16.093h-3.4399l-1.2477-3.5639h-5.6473l-1.2477 3.5639h-3.4399zm-11.928 1.4478c2.075 0 3.75 1.675 3.75 3.75s-1.675 3.75-3.75 3.75-3.75-1.675-3.75-3.75 1.675-3.75 3.75-3.75zm27.5 0c2.075 0 3.75 1.675 3.75 3.75s-1.675 3.75-3.75 3.75-3.75-1.675-3.75-3.75 1.675-3.75 3.75-3.75zm-13.762 2.1713-2.0223 6.4478h4.0429z" fill="#1a1a1a" stroke-width="2.5"/>
 <path d="m0 0h60v60h-60z" fill="none" stroke-width="2.5"/>
 <path d="m30 15.745c-0.0273 1e-3 -0.0545 2e-3 -0.0818 3e-3 -0.43175 2e-3 -0.8631 0.025-1.293 0.0662-0.097 0.0125-0.19387 0.025-0.2906 0.0382-0.35991 0.0418-0.71793 0.0937-1.0737 0.16175-0.0895 0.0175-0.17886 0.0375-0.26799 0.0575-0.40438 0.085-0.80352 0.189-1.199 0.308l-0.012 2e-3c-2.0809 0.6284-4.0209 1.7137-5.5895 3.2593-0.0303 0.0385-0.0553 0.0763-0.0853 0.11475-2.7833 2.682-4.3584 6.3792-4.3644 10.244 6e-3 2.1782 0.51179 4.326 1.4774 6.2785 9e-3 0.0225 0.0165 0.048 0.0261 0.0712 0.0238 0.0485 0.0523 0.0945 0.0766 0.14275 0.0966 0.19125 0.19761 0.38051 0.30279 0.56731 0.1531 0.26987 0.31449 0.53338 0.48551 0.79177 0.11521 0.172 0.23415 0.34138 0.35674 0.50813 0.13362 0.18349 0.27005 0.3646 0.41242 0.5412 0.13647 0.1715 0.27688 0.3397 0.42112 0.50465 0.0675 0.0763 0.13964 0.148 0.20882 0.22275 0.36729 0.40012 0.75715 0.77895 1.1677 1.1346 0.69715 0.60407 1.4513 1.1391 2.2518 1.5975 0.0254 0.015 0.051 0.029 0.0766 0.0435 0.53097 0.30241 1.0808 0.57037 1.6462 0.80223 0.17845 0.0702 0.3583 0.137 0.53945 0.2 0.23897 0.087 0.48055 0.1665 0.72391 0.24025 0.13398 0.042 0.26856 0.082 0.40372 0.12 0.38017 0.10275 0.7639 0.18975 1.152 0.25927 0.1181 0.02 0.23645 0.0375 0.35499 0.054 0.2651 0.0403 0.53113 0.0735 0.79874 0.0975 0.45669 0.0488 0.91547 0.0755 1.3747 0.08 0.0592-2e-3 0.11835-5e-3 0.1775-7e-3 0.89373-2e-3 1.7813-0.0943 2.6503-0.27496 2e-3 -2.5e-4 4e-3 2.5e-4 5e-3 0 0.0192-5e-3 0.0383-0.01 0.0574-0.015 0.37255-0.0793 0.74212-0.17226 1.1068-0.28191 0.28897-0.0877 0.57508-0.18474 0.8579-0.29059 0.0667-0.025 0.1338-0.0473 0.20012-0.073 2.1872-0.83168 4.1361-2.1889 5.6747-3.952l0.0175-0.0175c6e-3 -8e-3 0.01-0.015 0.0158-0.02 0.2215-0.254 0.43394-0.51575 0.63689-0.7848 0.10555-0.13875 0.20423-0.28198 0.30453-0.4246 0.12525-0.17525 0.24653-0.35345 0.36371-0.53425 0.22907-0.3604 0.44433-0.7309 0.63864-1.112 0.19978-0.39177 0.37936-0.79437 0.53946-1.2059 0.11115-0.29128 0.2127-0.5861 0.30452-0.884 0.0153-0.05 0.0357-0.0978 0.0505-0.148 4e-3 -0.0125 5e-3 -0.0225 9e-3 -0.0347 0.0763-0.24575 0.14593-0.49353 0.20883-0.74305 0.07-0.26945 0.13025-0.5402 0.18273-0.81265 0.0235-0.1185 0.0456-0.2375 0.0661-0.35675 0.0609-0.37083 0.10443-0.74335 0.134-1.1172 7e-3 -0.0742 0.0145-0.1485 0.021-0.22275 0.01-0.1525 0.013-0.3049 0.0175-0.45767 8e-3 -0.161 0.0143-0.3224 0.0172-0.48373-3e-3 -0.0685-6e-3 -0.137-0.0105-0.20525-4e-3 -0.189-0.0165-0.37682-0.0279-0.5655-0.13612-2.5818-0.97176-5.078-2.4174-7.2215-0.06-0.0847-0.1209-0.16875-0.18273-0.25232-0.22202-0.3185-0.45726-0.62665-0.70477-0.92578-4e-3 -5e-3 -7e-3 -0.01-0.0105-0.015l-0.0175-0.02c-0.91224-1.096-1.9854-2.0591-3.2139-2.8175-2.1201-1.4078-4.6105-2.1302-7.126-2.217-0.182-0.01-0.36417-0.0175-0.54641-0.02zm-1.7941 5.3371h3.5639l5.7008 16.037h-3.3846l-1.2477-3.5639h-5.7026l-1.2477 3.5639h-3.3846zm1.7819 3.5639-2.0499 6.503h4.0981z" fill="#d40000" stroke-width="1.7819"/>
</svg>
